<svg display="none" xmlns="http://www.w3.org/2000/svg">
  <symbol id="bem" viewBox="0 0 100 100">
    <g>
      <path d="M0 13h23.8v7H0zM0 0h23.8v7H0zm42.7 25.9H0v7h41.1c4.5 0 15 .1 18.9 6.4v-3.9c-1.9-6.2-7.5-9.5-17.3-9.5zm.1 13H0v7h41.1c10 0 16.3.4 18.9 1.8v-3.1c-2-4.9-10.4-5.7-17.2-5.7zm-.1 33H0v-7h41.1c4.5 0 15-.1 18.9-6.4v3.9c-1.9 6.2-7.5 9.5-17.3 9.5zm.1-13H0v-7h41.1c10 0 16.3-.4 18.9-1.8v3.1c-2 4.9-10.4 5.7-17.2 5.7zM70.4 84h31.4v-4.3H71.3c-2.7 0-9.1-.1-11.4-3.8v2.4C61 82 64.4 84 70.4 84zm-.1-7.9h31.4v-4.3H71.3c-6.1 0-9.9-.2-11.4-1.1v1.9c1.2 3 6.3 3.5 10.4 3.5z"></path>
    </g>
  </symbol>
  <symbol id="bootstrap" viewBox="0 0 30 30">
    <g>
      <path d="M 5 5 L 5 27 L 27 27 L 27 5 L 5 5 z M 7 7 L 25 7 L 25 25 L 7 25 L 7 7 z M 11 10 L 11 15.509766 L 11 21.990234 C 16.93 21.990234 18.116563 22.070234 19.226562 21.740234 C 19.876562 21.540234 21.65625 20.900391 21.65625 18.650391 C 21.65625 17.650391 21.356484 15.959062 19.396484 15.539062 L 19.396484 15.509766 L 19.027344 15.509766 C 20.027344 15.059766 20.65625 14.210937 20.65625 12.960938 C 20.65625 12.640937 20.746094 10 17.246094 10 L 11 10 z M 13 12 L 17 12 C 18.509 12 18.65625 12.853234 18.65625 13.490234 C 18.65625 15.044234 17.03 15 17 15 L 13 15 L 13 12 z M 13 17 L 17.759766 17 C 19.620766 17 19.65625 18.176469 19.65625 18.480469 C 19.65625 20.040469 18.044609 20 17.849609 20 L 13 20 L 13 17 z"></path>
    </g>
  </symbol>
  <symbol id="css" viewBox="0 0 500 500">
    <g>
      <path d="M76.194 24.261l-17.18 85.963h349.874l-10.942 55.527h-350.094l-16.946 85.949h349.842l-19.509 98.032-141.006 46.711-122.2-46.711 8.364-42.521h-85.949l-20.448 103.176 202.113 77.352 233.003-77.352 76.884-386.126z"></path>
    </g>
  </symbol>
  <symbol id="close" viewBox="0 0 30 30">
    <g>
      <path d="M17.2807 15.3899L28.54 3.84345C29.2727 3.0924 29.2727 1.87806 28.54 1.12701C27.8076 0.375959 26.6234 0.375959 25.891 1.12701L14.6314 12.6735L3.3721 1.12701C2.63936 0.375959 1.45553 0.375959 0.723136 1.12701C-0.00960004 1.87806 -0.00960004 3.0924 0.723136 3.84345L11.9824 15.3899L0.723136 26.9363C-0.00960004 27.6874 -0.00960004 28.9017 0.723136 29.6528C1.08813 30.0274 1.56805 30.2156 2.04762 30.2156C2.52719 30.2156 3.00676 30.0274 3.3721 29.6528L14.6314 18.1063L25.891 29.6528C26.2564 30.0274 26.7359 30.2156 27.2155 30.2156C27.6951 30.2156 28.1747 30.0274 28.54 29.6528C29.2727 28.9017 29.2727 27.6874 28.54 26.9363L17.2807 15.3899Z"></path>
    </g>
  </symbol>
  <symbol id="discord" viewBox="0 0 500 500">
    <g>
      <path d="M447.249,82.455V474.57c-55.065-48.661-37.454-32.553-101.418-92.018L350,422.987H109.557c-24.698,0-44.806-20.106-44.806-45.026 V82.455c0-24.917,20.107-45.025,44.806-45.025H402.44C427.14,37.43,447.249,57.538,447.249,82.455z" style="fill:none;stroke:#ffffff;stroke-width:20;stroke-linecap:round;stroke-linejoin:round;stroke-miterlimit:10;"></path>
      <path d="M353.481,162.233c-31.474-23.605-61.418-22.95-61.418-22.95l-3.06,3.498c37.157,11.365,54.425,27.758,54.425,27.758 c-51.921-28.456-112.91-28.46-163.273-6.338c-8.088,3.715-12.896,6.338-12.896,6.338s18.142-17.267,57.485-28.632l-2.185-2.624 c0,0-29.945-0.655-61.419,22.95c0,0-31.474,57.047-31.474,127.426c0,0,18.361,31.692,66.663,33.223c0,0,8.088-9.834,14.645-18.142 c-27.759-8.306-38.249-25.789-38.249-25.789c3.215,2.248,8.517,5.168,8.961,5.463c36.892,20.662,89.295,27.43,136.388,7.65 c7.648-2.841,16.174-6.995,25.135-12.896c0,0-10.929,17.924-39.562,26.01c6.559,8.305,14.427,17.703,14.427,17.703 c48.304-1.53,66.881-33.223,66.881-33.223C384.955,219.28,353.481,162.233,353.481,162.233z M216.438,269.333 c-12.24,0-22.295-10.928-22.295-24.262c0-13.333,9.836-24.261,22.295-24.261c12.458,0,22.513,10.928,22.294,24.261 C238.732,258.405,228.896,269.333,216.438,269.333z M296.216,269.333c-12.239,0-22.294-10.928-22.294-24.262 c0-13.333,9.836-24.261,22.294-24.261c12.459,0,22.295,10.928,22.295,24.261C318.511,258.405,308.675,269.333,296.216,269.333z"></path>
    </g>
  </symbol>
  <symbol id="download" viewBox="0 0 30 30">
    <g>
      <path d="M256 288l128-128h-96v-128h-64v128h-96zM372.363 235.636l-35.87 35.871 130.040 48.493-210.533 78.509-210.533-78.509 130.040-48.493-35.871-35.871-139.636 52.364v128l256 96 256-96v-128z"></path>
    </g>
  </symbol>
  <symbol id="facebook" viewBox="0 0 20 20">
    <g>
      <path d="M17.0712 0.998589H2.9306C1.31531 0.998589 0.000915527 2.31298 0.000915527 3.92828V18.0689C0.000915527 19.6842 1.31531 20.9986 2.9306 20.9986H8.82904V13.9283H6.48529V10.4127H8.82904V8.02984C8.82904 6.09121 10.406 4.51421 12.3447 4.51421H15.8994V8.02984H12.3447V10.4127H15.8994L15.3134 13.9283H12.3447V20.9986H17.0712C18.6865 20.9986 20.0009 19.6842 20.0009 18.0689V3.92828C20.0009 2.31298 18.6865 0.998589 17.0712 0.998589Z"></path>
    </g>
  </symbol>
  <symbol id="figma" viewBox="0 0 30 30">
    <g>
      <path fill-rule="evenodd" clip-rule="evenodd" d="M11 2.00418H9.00001C8.1875 2.00413 7.39424 2.25152 6.7258 2.71342C6.05736 3.17532 5.54543 3.82983 5.25814 4.58985C4.97086 5.34987 4.92183 6.17936 5.11759 6.96793C5.31336 7.7565 5.74463 8.46676 6.35401 9.00418C5.92792 9.37916 5.58674 9.84072 5.35325 10.3581C5.11976 10.8754 4.99933 11.4366 5.00001 12.0042C4.99933 12.5718 5.11976 13.133 5.35325 13.6503C5.58674 14.1676 5.92792 14.6292 6.35401 15.0042C5.85275 15.4463 5.47028 16.007 5.24154 16.635C5.0128 17.2631 4.94508 17.9384 5.04456 18.5993C5.14405 19.2603 5.40757 19.8858 5.81105 20.4186C6.21453 20.9515 6.74511 21.3747 7.35431 21.6497C7.9635 21.9247 8.6319 22.0427 9.29842 21.9928C9.96494 21.943 10.6083 21.7269 11.1698 21.3643C11.7313 21.0017 12.193 20.5042 12.5127 19.9173C12.8324 19.3303 13 18.6726 13 18.0042V15.4692C13.8593 15.9665 14.8727 16.1265 15.8434 15.9181C16.8141 15.7097 17.6726 15.1477 18.2519 14.3415C18.8313 13.5353 19.0902 12.5425 18.9782 11.556C18.8662 10.5696 18.3914 9.66 17.646 9.00418C18.2554 8.46676 18.6867 7.7565 18.8824 6.96793C19.0782 6.17936 19.0292 5.34987 18.7419 4.58985C18.4546 3.82983 17.9427 3.17532 17.2742 2.71342C16.6058 2.25152 15.8125 2.00413 15 2.00418H11ZM13 4.00418V8.00418H15C15.5304 8.00418 16.0391 7.79347 16.4142 7.41839C16.7893 7.04332 17 6.53461 17 6.00418C17 5.47375 16.7893 4.96504 16.4142 4.58997C16.0391 4.21489 15.5304 4.00418 15 4.00418H13ZM11 10.0042H9.00001C8.46957 10.0042 7.96086 10.2149 7.58579 10.59C7.21072 10.965 7.00001 11.4737 7.00001 12.0042C7.00001 12.5346 7.21072 13.0433 7.58579 13.4184C7.96086 13.7935 8.46957 14.0042 9.00001 14.0042H11V10.0042ZM9.00001 8.00418H11V4.00418H9.00001C8.46957 4.00418 7.96086 4.21489 7.58579 4.58997C7.21072 4.96504 7.00001 5.47375 7.00001 6.00418C7.00001 6.53461 7.21072 7.04332 7.58579 7.41839C7.96086 7.79347 8.46957 8.00418 9.00001 8.00418ZM13 12.0042C13 12.5346 13.2107 13.0433 13.5858 13.4184C13.9609 13.7935 14.4696 14.0042 15 14.0042C15.5304 14.0042 16.0391 13.7935 16.4142 13.4184C16.7893 13.0433 17 12.5346 17 12.0042C17 11.4737 16.7893 10.965 16.4142 10.59C16.0391 10.2149 15.5304 10.0042 15 10.0042C14.4696 10.0042 13.9609 10.2149 13.5858 10.59C13.2107 10.965 13 11.4737 13 12.0042ZM9.00001 16.0042H11V18.0042C11 18.3997 10.8827 18.7864 10.6629 19.1153C10.4432 19.4442 10.1308 19.7006 9.76537 19.8519C9.39992 20.0033 8.99779 20.0429 8.60982 19.9658C8.22186 19.8886 7.8655 19.6981 7.58579 19.4184C7.30609 19.1387 7.11561 18.7823 7.03843 18.3944C6.96126 18.0064 7.00087 17.6043 7.15225 17.2388C7.30362 16.8734 7.55997 16.561 7.88887 16.3412C8.21776 16.1215 8.60444 16.0042 9.00001 16.0042Z"></path>
    </g>
  </symbol>
  <symbol id="git" viewBox="0 0 500 500">
    <g>
      <path d="M502.346 233.197l-223.548-223.54c-12.869-12.877-33.748-12.877-46.634 0l-51.941 51.938 39.085 39.085c6.266-2.998 13.282-4.68 20.692-4.68 26.51 0 48 21.49 48 48 0 7.41-1.682 14.427-4.681 20.693l63.988 63.987c6.266-2.998 13.283-4.68 20.693-4.68 26.51 0 48 21.49 48 48s-21.49 48-48 48-48-21.49-48-48c0-7.41 1.682-14.427 4.681-20.693l-63.988-63.987c-1.521 0.728-3.088 1.371-4.692 1.938v133.484c18.641 6.591 32 24.359 32 45.258 0 26.51-21.49 48-48 48s-48-21.49-48-48c0-20.898 13.359-38.667 32-45.258v-133.484c-18.641-6.59-32-24.36-32-45.258 0-7.41 1.682-14.426 4.68-20.692l-39.085-39.085-147.946 147.938c-12.875 12.888-12.875 33.767 0 46.644l223.56 223.54c12.869 12.875 33.742 12.875 46.634 0l222.503-222.503c12.879-12.881 12.879-33.77-0.001-46.645z"></path>
    </g>
  </symbol>
  <symbol id="github" viewBox="0 0 500 500">
    <g>
      <path d="M256.004 6.321c-141.369 0-256.004 114.609-256.004 255.999 0 113.107 73.352 209.066 175.068 242.918 12.793 2.369 17.496-5.555 17.496-12.316 0-6.102-0.24-26.271-0.348-47.662-71.224 15.488-86.252-30.205-86.252-30.205-11.641-29.588-28.424-37.458-28.424-37.458-23.226-15.889 1.755-15.562 1.755-15.562 25.7 1.805 39.238 26.383 39.238 26.383 22.836 39.135 59.888 27.82 74.502 21.279 2.294-16.543 8.926-27.84 16.253-34.232-56.865-6.471-116.638-28.425-116.638-126.516 0-27.949 10.002-50.787 26.38-68.714-2.658-6.45-11.427-32.486 2.476-67.75 0 0 21.503-6.876 70.42 26.245 20.418-5.674 42.318-8.518 64.077-8.617 21.751 0.099 43.668 2.943 64.128 8.617 48.867-33.122 70.328-26.245 70.328-26.245 13.936 35.264 5.175 61.3 2.518 67.75 16.41 17.928 26.347 40.766 26.347 68.714 0 98.327-59.889 119.975-116.895 126.312 9.182 7.945 17.362 23.523 17.362 47.406 0 34.254-0.298 61.822-0.298 70.254 0 6.814 4.611 14.797 17.586 12.283 101.661-33.888 174.921-129.813 174.921-242.884 0-141.39-114.617-255.999-255.996-255.999z"></path>
    </g>
  </symbol>
  <symbol id="gmail" viewBox="0 0 50 50">
    <g>
      <path d="M12 23.403V23.39 10.389L11.88 10.3h-.01L9.14 8.28C7.47 7.04 5.09 7.1 3.61 8.56 2.62 9.54 2 10.9 2 12.41v3.602L12 23.403zM38 23.39v.013l10-7.391V12.41c0-1.49-.6-2.85-1.58-3.83-1.46-1.457-3.765-1.628-5.424-.403L38.12 10.3 38 10.389V23.39zM14 24.868l10.406 7.692c.353.261.836.261 1.189 0L36 24.868V11.867L25 20l-11-8.133V24.868zM38 25.889V41c0 .552.448 1 1 1h6.5c1.381 0 2.5-1.119 2.5-2.5V18.497L38 25.889zM12 25.889L2 18.497V39.5C2 40.881 3.119 42 4.5 42H11c.552 0 1-.448 1-1V25.889z"></path>
    </g>
  </symbol>
  <symbol id="gulp" viewBox="0 0 30 30">
    <g>
      <path d="M 22.154297 1 C 22.113531 1.0015781 22.081797 1.0129531 22.060547 1.0332031 L 18.345703 5.4453125 L 17.587891 8.0507812 C 17.072891 8.0337813 16.541094 8.0273438 15.996094 8.0273438 C 12.135094 8.0273437 9 8.4363594 9 8.9433594 C 9 10.153359 22.990234 10.153359 22.990234 8.9433594 C 22.990234 8.5683594 21.315391 8.2515625 18.900391 8.1015625 L 19.5 5.9570312 L 22.974609 1.7773438 L 22.980469 1.7714844 C 23.058469 1.6904844 22.906203 1.447375 22.658203 1.234375 C 22.472203 1.073875 22.276594 0.99526563 22.154297 1 z M 17.302734 9.0761719 L 17.289062 9.1171875 C 17.283062 9.1221875 17.283203 9.1287656 17.283203 9.1347656 C 17.283203 9.2097656 17.586078 9.2714844 17.955078 9.2714844 C 18.324078 9.2714844 18.628906 9.2097656 18.628906 9.1347656 L 18.640625 9.0878906 C 18.737625 9.1228906 18.791016 9.1629844 18.791016 9.2089844 C 18.791016 9.3299844 18.416219 9.4288281 17.949219 9.4238281 C 17.495219 9.4238281 17.119141 9.3319375 17.119141 9.2109375 C 17.119141 9.1589375 17.193734 9.1111719 17.302734 9.0761719 z M 22.912109 9.4199219 C 21.061109 10.406922 10.949797 10.413594 9.0917969 9.4335938 L 9.9140625 16.666016 C 10.271062 15.513016 11.173938 13.956375 12.335938 13.484375 C 12.716938 13.328375 13.103797 13.329109 13.466797 13.537109 C 13.781797 13.710109 14.048125 14.072797 14.078125 14.216797 C 14.151125 14.591797 13.957641 14.740234 13.806641 14.740234 C 13.624641 14.740234 13.485531 14.476312 13.394531 14.320312 C 13.146531 13.899313 12.771094 13.881203 12.371094 14.158203 C 11.953094 14.446203 11.589938 14.930563 11.335938 15.351562 C 11.026938 15.858562 10.766375 16.417563 10.609375 16.976562 C 10.518375 17.299563 10.435219 17.817047 10.574219 18.123047 C 10.635219 18.250047 10.725094 18.330078 10.871094 18.330078 C 11.174094 18.330078 11.614172 17.950047 11.826172 17.748047 C 12.098172 17.489047 12.449031 17.085172 12.582031 16.826172 L 12.898438 15.933594 C 13.055438 15.541594 13.496094 15.610594 13.496094 15.933594 C 13.496094 16.521594 13.273578 16.717594 12.892578 17.933594 C 12.541578 19.057594 12.431641 19.421875 12.431641 19.421875 C 12.389641 19.582875 12.225781 19.853516 12.050781 19.853516 C 11.977781 19.853516 11.924531 19.829203 11.894531 19.783203 C 11.833531 19.702203 11.839703 19.479875 11.845703 19.421875 C 11.857703 19.237875 12.226109 18.14175 12.287109 17.96875 C 12.166109 18.09575 12.039391 18.223609 11.900391 18.349609 C 11.573391 18.643609 11.047609 19.029297 10.599609 19.029297 C 10.393609 19.029297 10.261766 18.976625 10.134766 18.890625 L 10.59375 23.478516 C 10.71475 23.766516 12.966641 24.464844 15.931641 24.464844 C 18.902641 24.464844 21.152578 23.761516 21.267578 23.478516 L 21.927734 18.027344 C 21.582734 18.327344 21.184188 18.696859 20.742188 18.880859 C 20.415187 19.013859 19.689453 19.098781 19.689453 18.550781 C 19.689453 18.250781 20.240547 17.6985 20.560547 17.3125 C 20.645547 17.2145 20.84375 16.972703 20.84375 16.845703 C 20.84375 16.678703 20.481719 16.717281 20.136719 16.988281 C 19.942719 17.144281 19.760375 17.352828 19.609375 17.548828 C 19.349375 17.894828 19.210703 18.193406 19.095703 18.441406 C 18.720703 19.259406 18.847922 18.936984 18.544922 19.708984 C 18.241922 20.475984 18.291469 20.388625 18.230469 20.515625 C 18.176469 20.625625 18.097281 20.718391 17.988281 20.775391 C 17.873281 20.833391 17.716141 20.826812 17.619141 20.757812 C 17.565141 20.722812 17.539062 20.647922 17.539062 20.544922 C 17.539062 20.492922 17.546594 20.440672 17.558594 20.388672 C 17.649594 20.036672 18.030797 19.346109 18.466797 18.412109 C 18.563797 18.199109 18.526672 18.262297 18.513672 18.279297 C 18.138672 18.625297 17.853578 18.792766 17.642578 18.884766 C 17.291578 19.034766 16.855625 19.034438 16.765625 18.648438 C 16.759625 18.625438 16.759906 18.601125 16.753906 18.578125 C 16.039906 19.108125 15.283922 19.252328 15.544922 18.111328 C 15.266922 18.584328 14.7815 18.970703 14.1875 18.970703 C 13.9395 18.970703 13.757969 18.890734 13.667969 18.677734 C 13.528969 18.360734 13.746312 17.817688 13.945312 17.304688 C 14.048312 17.045687 14.188953 16.734094 14.376953 16.371094 C 14.473953 16.175094 14.629937 16.059328 14.835938 16.111328 C 14.871937 16.123328 14.903594 16.135344 14.933594 16.152344 C 15.090594 16.256344 15.030172 16.410406 14.951172 16.566406 C 14.721172 16.998406 14.521672 17.315625 14.388672 17.765625 C 14.334672 17.955625 14.266516 18.285156 14.478516 18.285156 C 14.623516 18.285156 14.762484 18.238484 14.896484 18.146484 C 15.174484 17.950484 15.398359 17.657141 15.568359 17.369141 C 15.689359 17.162141 15.835203 16.891156 15.908203 16.660156 C 15.938203 16.562156 15.975578 16.469813 16.017578 16.382812 C 16.084578 16.238813 16.174031 16.089844 16.332031 16.089844 C 16.411031 16.089844 16.476391 16.118781 16.525391 16.175781 C 16.628391 16.302781 16.605781 16.433266 16.550781 16.572266 C 16.429781 16.895266 16.266813 17.184156 16.132812 17.535156 C 16.053812 17.737156 15.96875 17.995984 15.96875 18.208984 C 15.96875 18.404984 16.192859 18.358344 16.380859 18.277344 C 16.525859 18.214344 16.670969 18.117531 16.792969 18.019531 C 16.865969 17.737531 16.846625 17.799891 18.390625 14.087891 C 18.469625 13.897891 18.614766 13.816406 18.759766 13.816406 C 18.832766 13.816406 18.892125 13.840859 18.953125 13.880859 C 19.056125 13.955859 19.057625 14.115328 19.015625 14.236328 C 18.973625 14.346328 18.978187 14.311797 18.742188 14.841797 C 18.427187 15.538797 18.222359 16.041641 17.943359 16.681641 C 17.828359 16.946641 17.477969 17.770797 17.417969 17.966797 C 17.381969 18.093797 17.338516 18.300781 17.478516 18.300781 C 17.805516 18.300781 18.646953 17.545312 18.876953 17.320312 C 18.888953 17.303313 18.907641 17.297156 18.931641 17.285156 C 18.967641 17.175156 19.003203 17.07275 19.033203 16.96875 C 19.118203 16.74975 19.197469 16.494406 19.355469 16.316406 C 19.403469 16.258406 19.457578 16.224609 19.517578 16.224609 C 19.686578 16.224609 19.771484 16.293078 19.771484 16.455078 C 19.771484 16.518078 19.730078 16.7495 19.705078 16.8125 C 19.790078 16.7265 19.879563 16.640688 19.976562 16.554688 C 20.884563 15.753687 21.53125 16.162406 21.53125 16.566406 C 21.53125 16.992406 20.993266 17.585062 20.697266 17.914062 C 20.600266 18.024062 20.400531 18.225203 20.394531 18.283203 C 20.394531 18.358203 20.448344 18.388672 20.527344 18.388672 C 20.648344 18.388672 20.914719 18.186188 21.011719 18.117188 C 21.314719 17.892187 21.724625 17.546688 22.015625 17.304688 L 22.912109 9.4199219 z M 10.929688 24.03125 L 11.832031 25.496094 L 12.183594 30.072266 C 12.183594 30.585266 13.895953 31 16.001953 31 C 18.107953 31 19.820312 30.585266 19.820312 30.072266 L 20.099609 25.449219 L 20.951172 24.03125 C 18.554172 24.99425 13.423687 25.02825 10.929688 24.03125 z"></path>
    </g>
  </symbol>
  <symbol id="html" viewBox="0 0 500 500">
    <g>
      <path d="M30.269 0l41.072 460.815 184.378 51.185 184.862-51.262 41.15-460.738h-451.462zM392.315 150.714h-216.27l5.151 57.875h205.984l-15.521 173.505-115.922 32.127-115.786-32.127-7.915-88.756h56.747l4.024 45.116 62.931 16.958 0.139-0.039 62.967-16.996 6.535-73.275h-195.87l-15.247-170.9h283.107l-5.054 56.512z"></path>
    </g>
  </symbol>
  <symbol id="instagram" viewBox="0 0 500 500">  
    <g>
      <path d="M256 46.1c68.4 0 76.5 0.3 103.4 1.5 25 1.1 38.5 5.3 47.5 8.8 11.9 4.6 20.5 10.2 29.4 19.1 9 9 14.5 17.5 19.2 29.4 3.5 9 7.7 22.6 8.8 47.5 1.2 27 1.5 35.1 1.5 103.4s-0.3 76.5-1.5 103.4c-1.1 25-5.3 38.5-8.8 47.5-4.6 11.9-10.2 20.5-19.1 29.4-9 9-17.5 14.5-29.4 19.2-9 3.5-22.6 7.7-47.5 8.8-27 1.2-35.1 1.5-103.4 1.5s-76.5-0.3-103.4-1.5c-25-1.1-38.5-5.3-47.5-8.8-11.9-4.6-20.5-10.2-29.4-19.1-9-9-14.5-17.5-19.2-29.4-3.5-9-7.7-22.6-8.8-47.5-1.2-27-1.5-35.1-1.5-103.4s0.3-76.5 1.5-103.4c1.1-25 5.3-38.5 8.8-47.5 4.6-11.9 10.2-20.5 19.1-29.4 9-9 17.5-14.5 29.4-19.2 9-3.5 22.6-7.7 47.5-8.8 26.9-1.2 35-1.5 103.4-1.5zM256 0c-69.5 0-78.2 0.3-105.5 1.5-27.2 1.2-45.9 5.6-62.1 11.9-16.9 6.6-31.2 15.3-45.4 29.6-14.3 14.2-23 28.5-29.6 45.3-6.3 16.3-10.7 34.9-11.9 62.1-1.2 27.4-1.5 36.1-1.5 105.6s0.3 78.2 1.5 105.5c1.2 27.2 5.6 45.9 11.9 62.1 6.6 16.9 15.3 31.2 29.6 45.4 14.2 14.2 28.5 23 45.3 29.5 16.3 6.3 34.9 10.7 62.1 11.9 27.3 1.2 36 1.5 105.5 1.5s78.2-0.3 105.5-1.5c27.2-1.2 45.9-5.6 62.1-11.9 16.8-6.5 31.1-15.3 45.3-29.5s23-28.5 29.5-45.3c6.3-16.3 10.7-34.9 11.9-62.1 1.2-27.3 1.5-36 1.5-105.5s-0.3-78.2-1.5-105.5c-1.2-27.2-5.6-45.9-11.9-62.1-6.3-17-15-31.3-29.3-45.5-14.2-14.2-28.5-23-45.3-29.5-16.3-6.3-34.9-10.7-62.1-11.9-27.4-1.3-36.1-1.6-105.6-1.6v0z"></path>
      <path d="M256 124.5c-72.6 0-131.5 58.9-131.5 131.5s58.9 131.5 131.5 131.5 131.5-58.9 131.5-131.5c0-72.6-58.9-131.5-131.5-131.5zM256 341.3c-47.1 0-85.3-38.2-85.3-85.3s38.2-85.3 85.3-85.3c47.1 0 85.3 38.2 85.3 85.3s-38.2 85.3-85.3 85.3z"></path>
      <path d="M423.4 119.3c0 16.955-13.745 30.7-30.7 30.7s-30.7-13.745-30.7-30.7c0-16.955 13.745-30.7 30.7-30.7s30.7 13.745 30.7 30.7z"></path>
    </g>
  </symbol>
  <symbol id="javascript" viewBox="0 0 50 50">
    <g>
      <path d="M 43.335938 4 L 6.667969 4 C 5.195313 4 4 5.195313 4 6.667969 L 4 43.332031 C 4 44.804688 5.195313 46 6.667969 46 L 43.332031 46 C 44.804688 46 46 44.804688 46 43.335938 L 46 6.667969 C 46 5.195313 44.804688 4 43.335938 4 Z M 27 36.183594 C 27 40.179688 24.65625 42 21.234375 42 C 18.140625 42 15.910156 39.925781 15 38 L 18.144531 36.097656 C 18.75 37.171875 19.671875 38 21 38 C 22.269531 38 23 37.503906 23 35.574219 L 23 23 L 27 23 Z M 35.675781 42 C 32.132813 42 30.121094 40.214844 29 38 L 32 36 C 32.816406 37.335938 33.707031 38.613281 35.589844 38.613281 C 37.171875 38.613281 38 37.824219 38 36.730469 C 38 35.425781 37.140625 34.960938 35.402344 34.199219 L 34.449219 33.789063 C 31.695313 32.617188 29.863281 31.148438 29.863281 28.039063 C 29.863281 25.179688 32.046875 23 35.453125 23 C 37.878906 23 39.621094 23.84375 40.878906 26.054688 L 37.910156 27.964844 C 37.253906 26.789063 36.550781 26.328125 35.453125 26.328125 C 34.335938 26.328125 33.628906 27.039063 33.628906 27.964844 C 33.628906 29.109375 34.335938 29.570313 35.972656 30.28125 L 36.925781 30.691406 C 40.171875 32.078125 42 33.496094 42 36.683594 C 42 40.117188 39.300781 42 35.675781 42 Z"></path>
    </g>
  </symbol>
  <symbol id="jquery" viewBox="0 0 50 50">
    <g>
      <path d="M 29.867188 3.007813 C 29.761719 3.023438 29.65625 3.054688 29.554688 3.101563 C 28.695313 3.527344 27.71875 4.792969 27.53125 5.042969 C 27.519531 5.058594 27.507813 5.074219 27.5 5.089844 C 26.535156 6.535156 26.019531 8.226563 26 9.988281 C 25.988281 11.308594 26.246094 12.617188 26.769531 13.878906 C 27.988281 16.804688 30.519531 19.226563 33.53125 20.359375 C 33.632813 20.394531 33.730469 20.429688 33.90625 20.492188 C 33.921875 20.5 34.070313 20.546875 34.09375 20.550781 L 34.203125 20.589844 C 34.359375 20.640625 34.519531 20.691406 34.675781 20.722656 C 35.46875 20.882813 36.242188 20.972656 36.96875 20.996094 C 37.09375 20.996094 37.21875 21 37.34375 21 C 42.824219 21 44.949219 17.132813 45.65625 15.84375 C 45.726563 15.71875 45.777344 15.617188 45.824219 15.554688 C 45.824219 15.550781 45.824219 15.550781 45.828125 15.546875 C 46.136719 15.089844 46.019531 14.46875 45.5625 14.15625 C 45.109375 13.847656 44.488281 13.964844 44.175781 14.421875 C 44.175781 14.421875 44.171875 14.421875 44.171875 14.421875 C 42.710938 16.574219 40.210938 17.226563 36.746094 16.367188 C 36.488281 16.304688 36.207031 16.207031 35.957031 16.113281 C 35.628906 15.996094 35.300781 15.859375 34.996094 15.710938 C 34.390625 15.410156 33.820313 15.050781 33.304688 14.652344 C 30.257813 12.289063 29.066406 7.371094 30.847656 4.53125 C 31.085938 4.152344 31.042969 3.660156 30.742188 3.328125 C 30.515625 3.078125 30.1875 2.964844 29.867188 3.007813 Z M 21.007813 5 C 20.78125 4.996094 20.550781 5.070313 20.363281 5.226563 C 18.851563 6.457031 17.304688 8.472656 17.238281 8.554688 C 17.230469 8.570313 17.222656 8.582031 17.210938 8.597656 C 14.476563 12.578125 14.269531 18.242188 16.6875 23.027344 C 17.066406 23.785156 17.496094 24.507813 17.953125 25.171875 L 18.089844 25.367188 C 18.476563 25.933594 18.910156 26.574219 19.464844 27.074219 C 19.65625 27.292969 19.863281 27.503906 20.066406 27.707031 L 20.164063 27.808594 L 20.246094 27.890625 C 20.453125 28.089844 20.664063 28.292969 20.882813 28.488281 C 20.882813 28.488281 20.886719 28.488281 20.886719 28.488281 C 20.902344 28.511719 20.925781 28.527344 20.945313 28.546875 C 21.191406 28.765625 21.441406 28.972656 21.773438 29.234375 L 21.863281 29.300781 C 22.121094 29.507813 22.382813 29.703125 22.652344 29.894531 C 22.679688 29.914063 22.707031 29.933594 22.734375 29.953125 C 22.828125 30.015625 22.921875 30.074219 23.015625 30.140625 L 23.109375 30.203125 L 23.21875 30.273438 C 23.417969 30.40625 23.613281 30.527344 23.890625 30.6875 C 24.070313 30.796875 24.261719 30.90625 24.386719 30.96875 C 24.441406 31 24.5 31.03125 24.636719 31.105469 L 24.941406 31.265625 C 24.957031 31.273438 25.027344 31.304688 25.042969 31.3125 C 25.242188 31.414063 25.449219 31.511719 25.65625 31.605469 L 25.972656 31.746094 C 26.179688 31.835938 26.390625 31.921875 26.648438 32.019531 L 26.765625 32.0625 C 26.773438 32.070313 26.871094 32.105469 26.878906 32.109375 C 27.066406 32.175781 27.257813 32.242188 27.449219 32.304688 L 27.886719 32.449219 C 28.105469 32.523438 28.359375 32.609375 28.636719 32.65625 C 30 32.882813 31.324219 33 32.578125 33 C 32.726563 33 32.875 32.996094 33.019531 32.996094 C 44.058594 32.753906 46.929688 23.375 46.957031 23.28125 C 47.09375 22.808594 46.871094 22.304688 46.425781 22.09375 C 45.980469 21.882813 45.449219 22.03125 45.171875 22.4375 C 42.375 26.523438 37.085938 28.25 31.699219 26.828125 C 31.449219 26.765625 31.207031 26.695313 30.90625 26.597656 C 30.855469 26.582031 30.8125 26.566406 30.730469 26.535156 C 30.554688 26.480469 30.382813 26.421875 30.1875 26.347656 L 29.910156 26.242188 C 29.75 26.179688 29.589844 26.117188 29.394531 26.03125 L 29.265625 25.972656 C 29.027344 25.871094 28.796875 25.757813 28.589844 25.65625 L 28.019531 25.359375 C 27.890625 25.296875 27.777344 25.226563 27.601563 25.121094 L 27.503906 25.066406 L 27.40625 25.007813 C 27.261719 24.921875 27.117188 24.832031 26.984375 24.738281 L 26.890625 24.679688 C 26.882813 24.675781 26.804688 24.621094 26.796875 24.613281 C 26.679688 24.539063 26.566406 24.464844 26.457031 24.394531 C 26.214844 24.222656 25.976563 24.042969 25.699219 23.824219 L 25.589844 23.734375 C 23.011719 21.675781 21.105469 18.925781 20.210938 15.976563 C 19.378906 13.269531 19.996094 9.726563 21.863281 6.5 C 22.105469 6.082031 22.015625 5.550781 21.644531 5.238281 C 21.460938 5.082031 21.234375 5 21.007813 5 Z M 10.003906 8 C 9.765625 8 9.523438 8.085938 9.332031 8.257813 C 7.421875 9.972656 5.992188 12.195313 5.835938 12.449219 C 1.75 18.398438 2.539063 27.644531 5.34375 33.296875 C 5.398438 33.414063 5.457031 33.527344 5.515625 33.640625 L 5.554688 33.703125 C 5.605469 33.816406 5.664063 33.933594 5.683594 33.957031 C 5.714844 34.03125 5.761719 34.113281 5.78125 34.136719 C 5.828125 34.234375 5.875 34.320313 5.960938 34.46875 L 6.28125 35.019531 C 6.328125 35.09375 6.375 35.171875 6.390625 35.199219 C 6.453125 35.300781 6.519531 35.40625 6.585938 35.511719 L 6.742188 35.761719 C 6.789063 35.835938 6.835938 35.902344 6.867188 35.941406 C 7.023438 36.183594 7.179688 36.425781 7.351563 36.65625 C 7.359375 36.667969 7.367188 36.675781 7.375 36.683594 L 7.4375 36.769531 C 7.578125 36.972656 7.722656 37.167969 7.851563 37.328125 L 8.421875 38.050781 C 8.429688 38.058594 8.492188 38.132813 8.496094 38.140625 L 8.578125 38.234375 C 8.75 38.445313 8.933594 38.65625 9.117188 38.859375 C 9.144531 38.890625 9.171875 38.917969 9.199219 38.949219 C 9.375 39.140625 9.554688 39.332031 9.742188 39.53125 L 9.921875 39.703125 C 10.070313 39.859375 10.21875 40.011719 10.375 40.15625 C 10.375 40.160156 10.449219 40.230469 10.449219 40.230469 L 10.605469 40.375 C 10.792969 40.554688 10.988281 40.734375 11.136719 40.859375 C 11.144531 40.871094 11.285156 40.992188 11.296875 41 C 11.480469 41.164063 11.664063 41.320313 11.851563 41.472656 L 12.808594 42.230469 C 12.96875 42.347656 13.132813 42.464844 13.320313 42.601563 C 13.382813 42.648438 13.449219 42.695313 13.515625 42.738281 C 13.542969 42.761719 13.574219 42.785156 13.59375 42.796875 L 14.3125 43.277344 C 14.574219 43.449219 14.835938 43.609375 15.15625 43.800781 L 15.328125 43.898438 C 15.527344 44.015625 15.730469 44.132813 15.921875 44.234375 C 16.035156 44.296875 16.148438 44.351563 16.246094 44.402344 C 16.382813 44.476563 16.53125 44.558594 16.757813 44.667969 C 16.777344 44.679688 16.9375 44.757813 16.957031 44.765625 C 17.183594 44.878906 17.414063 44.984375 17.703125 45.113281 C 17.703125 45.117188 17.796875 45.160156 17.796875 45.160156 C 18.0625 45.273438 18.320313 45.382813 18.660156 45.519531 C 18.714844 45.542969 18.769531 45.5625 18.78125 45.566406 C 19.023438 45.660156 19.277344 45.753906 19.484375 45.828125 C 19.503906 45.835938 19.609375 45.878906 19.628906 45.886719 C 19.90625 45.980469 20.179688 46.070313 20.53125 46.179688 C 20.589844 46.199219 20.652344 46.21875 20.660156 46.21875 L 20.859375 46.28125 C 21.101563 46.355469 21.34375 46.433594 21.605469 46.484375 C 23.464844 46.824219 25.28125 47 27 47 L 27.003906 47 C 41.328125 47 45.890625 35.472656 45.9375 35.355469 C 46.113281 34.890625 45.921875 34.367188 45.484375 34.125 C 45.054688 33.886719 44.507813 34 44.203125 34.394531 C 40.527344 39.234375 33.59375 41.03125 25.65625 39.207031 C 25.464844 39.160156 25.269531 39.105469 25.078125 39.046875 L 24.703125 38.933594 C 24.449219 38.855469 24.195313 38.769531 23.949219 38.683594 C 23.945313 38.683594 23.832031 38.640625 23.832031 38.640625 C 23.613281 38.566406 23.394531 38.480469 23.203125 38.40625 L 22.984375 38.320313 C 22.742188 38.222656 22.5 38.121094 22.265625 38.015625 L 22.128906 37.957031 C 21.917969 37.859375 21.714844 37.765625 21.511719 37.664063 C 21.496094 37.65625 21.335938 37.578125 21.320313 37.574219 C 21.179688 37.503906 21.039063 37.429688 20.859375 37.332031 L 20.042969 36.894531 C 19.960938 36.839844 19.875 36.789063 19.792969 36.746094 C 19.546875 36.59375 19.292969 36.441406 19.042969 36.28125 C 18.984375 36.246094 18.933594 36.207031 18.835938 36.140625 C 18.664063 36.03125 18.496094 35.917969 18.25 35.746094 L 18.152344 35.675781 C 17.984375 35.558594 17.820313 35.433594 17.683594 35.332031 C 17.597656 35.269531 17.511719 35.199219 17.371094 35.09375 C 17.246094 34.996094 17.121094 34.902344 17.003906 34.808594 L 16.785156 34.628906 C 16.601563 34.480469 16.429688 34.324219 16.25 34.171875 C 16.226563 34.148438 16.207031 34.132813 16.179688 34.113281 C 15.980469 33.929688 15.777344 33.746094 15.535156 33.515625 L 14.828125 32.8125 C 14.65625 32.636719 14.484375 32.457031 14.289063 32.242188 C 14.109375 32.042969 13.9375 31.84375 13.707031 31.570313 L 13.285156 31.054688 C 13.234375 30.980469 13.179688 30.90625 13.113281 30.828125 C 12.96875 30.632813 12.824219 30.441406 12.679688 30.238281 C 8.789063 24.878906 7.773438 13.691406 10.804688 9.59375 C 11.109375 9.183594 11.054688 8.605469 10.671875 8.257813 C 10.484375 8.085938 10.242188 8 10.003906 8 Z"></path>
    </g>
  </symbol>
  <symbol id="mail" viewBox="0 0 500 500">
    <g>
      <path d="M464 64h-416c-26.4 0-48 21.6-48 48v320c0 26.4 21.6 48 48 48h416c26.4 0 48-21.6 48-48v-320c0-26.4-21.6-48-48-48zM199.37 275.186l-135.37 105.446v-250.821l135.37 145.375zM88.19 128h335.62l-167.81 126-167.81-126zM204.644 280.849l51.356 55.151 51.355-55.151 105.277 135.151h-313.264l105.276-135.151zM312.63 275.186l135.37-145.375v250.821l-135.37-105.446z"></path>
    </g>
  </symbol>
  <symbol id="marker" viewBox="0 0 30 30">
    <g>
      <path d="M5.91767 0.770538C3.9207 0.770538 2.29605 2.39519 2.29605 4.39214C2.29605 6.87042 5.53705 10.5087 5.67504 10.6624C5.80464 10.8067 6.03093 10.8065 6.16031 10.6624C6.2983 10.5087 9.53929 6.87042 9.53929 4.39214C9.53925 2.39519 7.91463 0.770538 5.91767 0.770538ZM5.91767 9.94493C4.82691 8.64927 2.94824 6.09304 2.94824 4.39218C2.94824 2.7548 4.28031 1.42273 5.91767 1.42273C7.55504 1.42273 8.88711 2.7548 8.88711 4.39216C8.88709 6.0931 7.00871 8.64886 5.91767 9.94493Z"></path>
      <path d="M5.91765 2.57003C4.91293 2.57003 4.09555 3.38743 4.09555 4.39216C4.09555 5.39689 4.91295 6.21429 5.91765 6.21429C6.92236 6.21429 7.73973 5.39689 7.73973 4.39216C7.73973 3.38743 6.92236 2.57003 5.91765 2.57003ZM5.91765 5.5621C5.27254 5.5621 4.74774 5.03728 4.74774 4.39216C4.74774 3.74704 5.27256 3.22222 5.91765 3.22222C6.56275 3.22222 7.08757 3.74704 7.08757 4.39216C7.08757 5.03728 6.56275 5.5621 5.91765 5.5621Z"></path>
    </g>
  </symbol>
  <symbol id="mysql" viewBox="0 0 50 50">
    <g>
      <path d="M 31.167969 8 C 30.699219 7.988281 30.289063 8.167969 30.078125 8.6875 C 29.71875 9.558594 30.613281 10.410156 30.933594 10.855469 C 31.15625 11.164063 31.445313 11.511719 31.605469 11.859375 C 31.710938 12.089844 31.726563 12.320313 31.816406 12.5625 C 32.039063 13.160156 32.394531 13.839844 32.679688 14.394531 C 32.824219 14.675781 32.984375 14.96875 33.167969 15.21875 C 33.28125 15.371094 33.472656 15.441406 33.503906 15.675781 C 33.316406 15.941406 33.304688 16.351563 33.199219 16.6875 C 32.722656 18.191406 32.902344 20.0625 33.59375 21.171875 C 33.808594 21.515625 34.3125 22.246094 35 21.96875 C 35.601563 21.722656 35.46875 20.960938 35.640625 20.285156 C 35.679688 20.136719 35.65625 20.023438 35.734375 19.921875 L 35.734375 19.953125 C 35.914063 20.320313 36.097656 20.6875 36.28125 21.050781 C 36.691406 21.707031 37.414063 22.390625 38.023438 22.855469 C 38.339844 23.09375 38.589844 23.507813 39 23.648438 L 39 23.617188 L 38.96875 23.617188 C 38.890625 23.492188 38.765625 23.441406 38.664063 23.34375 C 38.425781 23.109375 38.160156 22.816406 37.964844 22.546875 C 37.40625 21.792969 36.914063 20.964844 36.46875 20.105469 C 36.253906 19.695313 36.066406 19.242188 35.886719 18.824219 C 35.816406 18.660156 35.816406 18.417969 35.671875 18.332031 C 35.472656 18.640625 35.183594 18.886719 35.03125 19.25 C 34.789063 19.828125 34.753906 20.535156 34.664063 21.265625 C 34.609375 21.285156 34.632813 21.269531 34.605469 21.296875 C 34.179688 21.191406 34.027344 20.753906 33.871094 20.378906 C 33.472656 19.429688 33.394531 17.898438 33.75 16.808594 C 33.839844 16.523438 34.25 15.632813 34.085938 15.371094 C 34.007813 15.109375 33.742188 14.960938 33.597656 14.761719 C 33.414063 14.515625 33.234375 14.191406 33.109375 13.90625 C 32.78125 13.164063 32.472656 12.304688 32.125 11.554688 C 31.960938 11.195313 31.683594 10.835938 31.453125 10.515625 C 31.199219 10.164063 30.917969 9.90625 30.71875 9.476563 C 30.652344 9.328125 30.554688 9.085938 30.660156 8.929688 C 30.691406 8.824219 30.738281 8.78125 30.84375 8.746094 C 31.019531 8.609375 31.511719 8.789063 31.699219 8.867188 C 32.1875 9.070313 32.597656 9.265625 33.011719 9.539063 C 33.210938 9.671875 33.410156 9.925781 33.652344 10 L 33.925781 10 C 34.359375 10.097656 34.839844 10.027344 35.238281 10.152344 C 35.949219 10.367188 36.585938 10.703125 37.160156 11.066406 C 38.921875 12.175781 40.363281 13.757813 41.34375 15.644531 C 41.503906 15.949219 41.574219 16.242188 41.714844 16.5625 C 41.992188 17.210938 42.347656 17.882813 42.628906 18.515625 C 42.90625 19.152344 43.179688 19.789063 43.574219 20.316406 C 43.78125 20.59375 44.585938 20.746094 44.949219 20.898438 C 45.203125 21.007813 45.625 21.121094 45.863281 21.265625 C 46.328125 21.542969 46.773438 21.875 47.207031 22.183594 C 47.425781 22.335938 48.089844 22.667969 48.125 22.945313 C 47.050781 22.917969 46.230469 23.015625 45.53125 23.3125 C 45.332031 23.398438 45.011719 23.398438 44.980469 23.648438 C 45.085938 23.761719 45.105469 23.933594 45.191406 24.074219 C 45.359375 24.34375 45.640625 24.707031 45.894531 24.898438 C 46.171875 25.105469 46.453125 25.328125 46.75 25.511719 C 47.273438 25.828125 47.859375 26.011719 48.367188 26.332031 C 48.664063 26.523438 48.964844 26.761719 49.253906 26.972656 C 49.398438 27.082031 49.492188 27.246094 49.679688 27.3125 L 49.679688 27.28125 C 49.582031 27.15625 49.558594 26.984375 49.46875 26.855469 L 49.066406 26.453125 C 48.679688 25.941406 48.1875 25.488281 47.664063 25.113281 C 47.246094 24.8125 46.3125 24.40625 46.140625 23.921875 L 46.109375 23.890625 C 46.402344 23.859375 46.75 23.75 47.023438 23.675781 C 47.484375 23.554688 47.890625 23.585938 48.363281 23.464844 C 48.578125 23.402344 48.792969 23.339844 49.007813 23.28125 L 49.007813 23.15625 C 48.769531 22.914063 48.597656 22.585938 48.335938 22.363281 C 47.652344 21.78125 46.90625 21.199219 46.136719 20.714844 C 45.710938 20.445313 45.183594 20.269531 44.734375 20.042969 C 44.582031 19.964844 44.316406 19.925781 44.214844 19.796875 C 43.976563 19.496094 43.847656 19.113281 43.664063 18.761719 C 43.28125 18.023438 42.90625 17.21875 42.566406 16.441406 C 42.335938 15.914063 42.183594 15.390625 41.894531 14.914063 C 40.507813 12.636719 39.015625 11.257813 36.703125 9.90625 C 36.210938 9.617188 35.621094 9.507813 34.996094 9.359375 C 34.65625 9.335938 34.324219 9.316406 33.984375 9.296875 C 33.78125 9.210938 33.566406 8.960938 33.375 8.835938 C 32.894531 8.535156 31.949219 8.011719 31.167969 8 Z M 34.476563 11.3125 C 34.253906 11.308594 34.09375 11.339844 33.925781 11.375 L 33.925781 11.40625 L 33.957031 11.40625 C 34.0625 11.625 34.253906 11.765625 34.386719 11.953125 C 34.488281 12.167969 34.585938 12.382813 34.6875 12.597656 L 34.71875 12.566406 C 34.90625 12.433594 34.996094 12.21875 34.996094 11.894531 C 34.917969 11.816406 34.90625 11.714844 34.84375 11.621094 C 34.753906 11.492188 34.585938 11.421875 34.476563 11.3125 Z M 1.867188 23.996094 C 1.566406 24.007813 1.238281 24.066406 0.882813 24.179688 C 0.289063 24.359375 -0.00390625 24.714844 -0.00390625 25.4375 L -0.00390625 33 L 2 33 L 2 25.621094 L 4.777344 31.929688 C 5.121094 32.714844 5.589844 32.996094 6.507813 32.996094 C 7.429688 32.996094 7.878906 32.714844 8.222656 31.929688 L 11 25.78125 L 11 33 L 13 33 L 13 25.4375 C 13 24.714844 12.710938 24.359375 12.113281 24.179688 C 10.691406 23.730469 9.734375 24.117188 9.304688 25.089844 L 6.453125 31.503906 L 3.695313 25.089844 C 3.382813 24.359375 2.757813 23.960938 1.867188 23.996094 Z M 26.246094 24 C 25.457031 24 23 24.09375 23 26 L 23 27.234375 C 23 28.109375 23.769531 28.824219 25.4375 29 C 25.625 29.011719 25.8125 29.027344 26 29.027344 C 26 29.027344 27.945313 28.988281 28 29 C 29.125 29 29 29.875 29 30 L 29 31 C 29 31.136719 28.96875 32 27.988281 32 L 23 32 L 23 33 L 28.007813 33 C 28.664063 33 29.300781 32.863281 29.808594 32.625 C 30.652344 32.238281 31 31.714844 31 31.027344 L 31 29.597656 C 31 28.0625 29.09375 28 28 28 L 26 28 C 25.214844 28 25.09375 27.523438 25 27 L 25 26 C 25.09375 25.601563 25.269531 25.0625 25.964844 25 L 31 25 L 31 24 Z M 33.980469 24 C 32.503906 24.203125 31.984375 24.9375 31.984375 26 L 31.984375 31 C 31.984375 31.972656 32.527344 32.558594 33.644531 32.863281 C 34.019531 32.96875 34.359375 33.011719 34.679688 33.011719 L 36.90625 33 L 38.214844 33 L 39.328125 34 L 41.578125 34 L 40.03125 32.605469 C 40.757813 32.304688 40.984375 31.84375 40.984375 30.980469 L 40.984375 26 C 40.984375 24.9375 40.292969 24.203125 38.816406 24 Z M 42 24 L 42 30.957031 C 42 32.164063 42.683594 32.84375 44.492188 32.980469 C 44.660156 32.988281 44.832031 33 45 33 L 50 33 L 50 32 L 45.378906 32 C 44.347656 32 44 31.566406 44 30.949219 L 44 24 Z M 35.171875 25 L 37.746094 25 C 38.425781 25 38.882813 25.546875 38.984375 26 C 38.984375 26 39 30.65625 39 31 C 39 31.34375 38.808594 31.5 38.808594 31.5 L 38.265625 31 L 36 31 L 37.113281 32 L 35.171875 32 C 34.476563 32 34.085938 31.484375 33.984375 31 L 33.984375 26.101563 C 33.984375 25.570313 34.390625 25 35.171875 25 Z M 14 27 C 14.039063 27.039063 14 31.261719 14 31.34375 C 14.015625 32.21875 15.125 32.984375 16.863281 33 L 20 33 L 20 33.066406 C 20 33.253906 20.136719 33.878906 19 34 C 18.988281 34 14.011719 34 14 34 L 14 35 L 19.214844 35 C 20.097656 34.972656 22.011719 34.773438 22 33.242188 C 22 33.214844 22.007813 27 22 27 L 20 27 L 20 32 C 19.96875 32 17.523438 32.007813 17.03125 32 C 16.066406 31.984375 15.984375 31.433594 16 31.222656 L 16 27 Z"></path>
    </g>
  </symbol>
  <symbol id="phone" viewBox="0 0 30 30">
    <g>
      <path d="M10.6602 7.47918L9.41707 6.23603C9.07434 5.89332 8.51664 5.89332 8.17393 6.23603L7.60887 6.80109C7.34922 7.06074 6.92672 7.06066 6.66717 6.80119L4.21794 4.34988C3.95769 4.08963 3.95765 3.6684 4.21794 3.40811C4.30896 3.31709 4.57031 3.05574 4.783 2.84305C5.12423 2.50184 5.129 1.94588 4.78267 1.59959L3.53986 0.360689C3.19712 0.0179742 2.63944 0.0179742 2.29763 0.35979C2.04184 0.613345 1.95934 0.695141 1.84466 0.808833C0.608716 2.04475 0.608716 4.05574 1.8446 5.29162L5.72531 9.17435C6.96414 10.4132 8.96922 10.4133 10.2081 9.17435L10.6602 8.7223C11.003 8.37957 11.003 7.82191 10.6602 7.47918ZM2.7111 0.775063C2.82534 0.660825 3.0112 0.660806 3.12581 0.775376L4.36863 2.01428C4.48314 2.12879 4.48314 2.31412 4.36863 2.42866L4.16142 2.63584L2.50497 0.979399L2.7111 0.775063ZM6.13976 8.76004L2.25903 4.87727C1.30282 3.92106 1.25026 2.41959 2.09739 1.40059L3.74904 3.05223C3.31505 3.5442 3.33314 4.29387 3.80347 4.7642L6.25261 7.21539C6.25263 7.21541 6.25267 7.21545 6.25269 7.21547C6.72252 7.68531 7.47215 7.70457 7.96473 7.27L9.61641 8.92168C8.60065 9.76734 7.10256 9.72283 6.13976 8.76004ZM10.2459 8.30793L10.0387 8.51513L8.38113 6.8576L8.5883 6.65041C8.70256 6.53617 8.88844 6.53615 9.0027 6.65041L10.2458 7.89355C10.3601 8.00781 10.3601 8.19371 10.2459 8.30793Z"></path>
    </g>
  </symbol>
  <symbol id="photoshop" viewBox="0 0 30 30">
    <g>
      <path d="M 5 3 C 3.9 3 3 3.9 3 5 L 3 19 C 3 20.1 3.9 21 5 21 L 19 21 C 20.1 21 21 20.1 21 19 L 21 5 C 21 3.9 20.1 3 19 3 L 5 3 z M 7.7285156 8 L 9.5878906 8 C 11.913891 8 12.193359 10.140469 12.193359 10.605469 C 12.193359 12.465469 10.891641 13.115234 9.6816406 13.115234 L 8.5644531 13.115234 L 8.5644531 15.068359 C 8.5644531 15.530359 8.1905156 15.90625 7.7285156 15.90625 C 7.2665156 15.90625 6.890625 15.530359 6.890625 15.068359 L 6.890625 8.8378906 C 6.890625 8.3758906 7.2665156 8 7.7285156 8 z M 8.5644531 9.3027344 L 8.5644531 11.814453 L 9.6816406 11.814453 C 10.425641 11.814453 10.611328 11.256469 10.611328 10.605469 C 10.612328 9.9534687 10.333641 9.3027344 9.6816406 9.3027344 L 8.5644531 9.3027344 z M 15.169922 9.953125 C 15.995922 9.953125 16.593359 10.245266 16.943359 10.697266 C 17.295359 11.151266 16.966578 11.8125 16.392578 11.8125 L 16.296875 11.8125 C 16.026875 11.8125 15.759063 11.665109 15.664062 11.412109 C 15.581062 11.192109 15.417922 11.068359 15.169922 11.068359 C 14.890922 11.068359 14.611328 11.254953 14.611328 11.626953 C 14.611328 12.556953 17.308594 12.277219 17.308594 14.324219 C 17.308594 15.721219 15.913922 16 15.169922 16 C 14.284922 16 13.663688 15.637437 13.304688 15.148438 C 12.968687 14.691437 13.296281 14.046875 13.863281 14.046875 C 14.131281 14.046875 14.392188 14.190453 14.492188 14.439453 C 14.646187 14.825453 15.023922 14.882813 15.169922 14.882812 C 15.541922 14.882812 15.820313 14.696219 15.820312 14.324219 C 15.820312 13.487219 13.121094 13.581703 13.121094 11.720703 C 13.121094 10.325703 14.424922 9.953125 15.169922 9.953125 z"></path>
    </g>
  </symbol>
  <symbol id="php" viewBox="0 0 50 50">
    <g>
      <path d="M 25 12 C 11.542969 12 1 17.710938 1 25 C 1 32.289063 11.542969 38 25 38 C 38.457031 38 49 32.289063 49 25 C 49 17.710938 38.457031 12 25 12 Z M 22.507813 16 L 25.128906 16 L 24.296875 20 L 26.636719 20 C 28.121094 20 29.117188 20.207031 29.683594 20.726563 C 30.238281 21.238281 30.40625 22.078125 30.183594 23.222656 L 29.144531 28 L 26.480469 28 L 27.4375 23.582031 C 27.554688 22.976563 27.507813 22.554688 27.304688 22.332031 C 27.101563 22.109375 26.65625 22 25.988281 22 L 23.890625 22 L 22.625 28 L 20 28 Z M 11 20 L 16.332031 20 C 18.875 20 20.414063 21.703125 19.8125 24.246094 C 19.113281 27.199219 17.238281 28 13.792969 28 L 12.144531 28 L 11.621094 31 L 8.972656 31 Z M 32 20 L 37.332031 20 C 39.875 20 41.414063 21.703125 40.8125 24.246094 C 40.113281 27.199219 38.238281 28 34.792969 28 L 33.144531 28 L 32.621094 31 L 29.972656 31 Z M 13.269531 22 L 12.515625 26 L 14.226563 26 C 15.707031 26 17.082031 25.832031 17.3125 23.625 C 17.398438 22.769531 17.042969 22 15.332031 22 Z M 34.269531 22 L 33.515625 26 L 35.226563 26 C 36.707031 26 38.082031 25.832031 38.3125 23.625 C 38.398438 22.769531 38.042969 22 36.332031 22 Z"></path>
    </g>
  </symbol>
  <symbol id="sass" viewBox="0 0 30 30">
    <g>
      <path fill-rule="evenodd" clip-rule="evenodd" d="M16.372 2.15234C17.649 2.38634 18.931 2.96134 19.552 4.14434C20.192 5.36434 20.125 6.55034 19.593 7.54934C19.09 8.49334 18.213 9.19934 17.331 9.67334C16.441 10.1513 15.438 10.4513 14.559 10.5103C14.122 10.5403 13.662 10.5123 13.243 10.3773C12.823 10.2413 12.36 9.96534 12.103 9.44534C11.9874 9.21519 11.965 8.94932 12.0406 8.7031C12.1162 8.45688 12.2838 8.24931 12.5086 8.12363C12.7334 7.99795 12.9981 7.96385 13.2474 8.02844C13.4967 8.09303 13.7115 8.25132 13.847 8.47034C13.8503 8.4717 13.8537 8.47304 13.857 8.47434C13.957 8.50634 14.144 8.53434 14.426 8.51434C14.986 8.47734 15.714 8.27134 16.384 7.91134C17.061 7.54834 17.574 7.08534 17.828 6.60834C18.053 6.18734 18.11 5.70034 17.782 5.07434C17.582 4.69234 17.044 4.30834 16.012 4.11934C15.014 3.93634 13.747 3.97934 12.447 4.24934C11.15 4.51934 9.884 5.00234 8.88 5.64634C7.866 6.29634 7.205 7.05234 6.951 7.83634C6.677 8.68334 6.774 9.28034 7.021 9.77034C7.293 10.3073 7.789 10.8053 8.474 11.3383C8.806 11.5963 9.158 11.8453 9.529 12.1083L9.549 12.1223C9.92 12.3843 10.312 12.6613 10.677 12.9503C10.986 13.1933 11.3 13.4633 11.589 13.7673C12.882 13.5173 14.002 13.5443 14.921 13.9643C16.103 14.5053 16.695 15.5713 16.974 16.7773C17.0075 16.9066 17.0147 17.0413 16.9953 17.1734C16.9759 17.3056 16.9303 17.4325 16.861 17.5467C16.7918 17.6608 16.7003 17.76 16.5921 17.8383C16.4839 17.9166 16.3612 17.9724 16.231 18.0024C16.1009 18.0325 15.9661 18.0362 15.8345 18.0133C15.703 17.9904 15.5773 17.9414 15.465 17.8691C15.3527 17.7969 15.256 17.7029 15.1806 17.5927C15.1052 17.4824 15.0526 17.3582 15.026 17.2273C14.826 16.3613 14.499 15.9713 14.089 15.7833C13.789 15.6463 13.339 15.5673 12.671 15.6283C13.287 17.7933 12.211 19.7543 10.895 20.8653C10.185 21.4643 9.318 21.9003 8.449 21.9863C7.542 22.0773 6.572 21.7723 6.002 20.8253C5.5 19.9883 5.496 19.0983 5.758 18.3053C6.01 17.5433 6.508 16.8573 7.054 16.2893C7.7483 15.5787 8.54638 14.9776 9.421 14.5063C9.08536 14.2474 8.74325 13.997 8.395 13.7553L8.359 13.7293C7.98185 13.4672 7.61076 13.1965 7.246 12.9173C6.496 12.3323 5.711 11.6133 5.236 10.6713C4.736 9.68134 4.622 8.53734 5.049 7.21934C5.496 5.83734 6.564 4.75534 7.8 3.96234C9.046 3.16434 10.55 2.60134 12.04 2.29234C13.526 1.98234 15.06 1.91234 16.372 2.15234ZM10.722 16.0923C9.89189 16.4836 9.13811 17.0197 8.496 17.6753C8.066 18.1223 7.781 18.5573 7.656 18.9343C7.542 19.2803 7.568 19.5473 7.716 19.7953C7.799 19.9323 7.926 20.0293 8.251 19.9963C8.616 19.9603 9.117 19.7493 9.606 19.3363C10.541 18.5483 11.107 17.3263 10.722 16.0923ZM13.812 8.45634H13.814H13.812Z"></path>
    </g>
  </symbol>
  <symbol id="skype" viewBox="0 0 30 30">
    <g>
      <path d="M26.884,16.579C26.953,16.061,27,15.536,27,15c0-6.627-5.373-12-12-12c-0.536,0-1.061,0.047-1.579,0.116 C12.279,2.413,10.939,2,9.5,2C5.358,2,2,5.358,2,9.5c0,1.439,0.413,2.779,1.116,3.921C3.047,13.939,3,14.464,3,15 c0,6.627,5.373,12,12,12c0.536,0,1.061-0.047,1.579-0.116C17.721,27.587,19.061,28,20.5,28c4.142,0,7.5-3.358,7.5-7.5 C28,19.061,27.587,17.721,26.884,16.579z M15.149,22c-3.896,0-6.133-2.042-6.133-4.046c0-1.022,1.07-1.349,1.498-1.349 c0.989,0,1.318,0.807,1.498,1.177c1.005,2.066,1.971,1.794,2.923,1.884c0.841,0.079,2.815-0.292,2.815-1.734 c0-0.138,0.217-1.076-1.487-1.541c-1.089-0.298-3.009-0.663-4.589-1.271c-1.486-0.572-2.358-1.75-2.358-3.268 C9.316,11.093,9.705,8,14.967,8c3.512,0,5.384,1.799,5.384,3.382c0,0.364-0.139,0.685-0.418,0.974 c-0.279,0.289-1.065,0.712-1.926,0.161c-0.217-0.139-0.396-0.428-0.61-0.803c-0.258-0.471-0.68-1.381-2.623-1.381 c-1.885,0-2.408,0.899-2.408,1.274c0,1.26,2.405,1.525,3.051,1.692c2.358,0.608,5.566,1.167,5.566,4.346 C20.983,21.295,17.185,22,15.149,22z"></path>
    </g>
  </symbol>
  <symbol id="telegram" viewBox="0 0 500 500">
    <g>
      <path d="M256 0c-141.4 0-256 114.6-256 256s114.6 256 256 256 256-114.6 256-256-114.6-256-256-256zM381.8 175.5l-42 197.9c-2.9 14.1-11.4 17.4-23.2 10.9l-64-47.3-30.7 29.9c-3.6 3.5-6.4 6.4-12.8 6.4-8.3 0-6.9-3.1-9.7-11l-21.8-71.6-63.3-19.7c-13.7-4.2-13.8-13.6 3.1-20.3l246.6-95.2c11.2-5.1 22.1 2.7 17.8 20z"></path>
    </g>
  </symbol>
  <symbol id="viber" viewBox="0 0 500 500">
    <g>
      <path d="M424.908,70.792c-11.407-10.509-57.582-44.018-160.53-44.466c0,0-121.363-7.276-180.473,46.983 c-32.879,32.877-44.467,81.118-45.725,140.856c-1.258,59.74-2.785,171.669,105.104,202.034h0.089l-0.089,46.353 c0,0-0.718,18.775,11.678,22.548c14.913,4.672,23.716-9.611,37.999-24.973c7.816-8.444,18.595-20.841,26.77-30.275 c73.842,6.2,130.528-7.994,136.995-10.059c14.913-4.851,99.265-15.632,112.919-127.563 C483.838,176.705,462.818,103.761,424.908,70.792z M437.396,283.786c-11.589,93.423-79.952,99.353-92.528,103.396 c-5.39,1.706-55.247,14.104-117.86,10.062c0,0-46.713,56.324-61.266,70.968c-4.761,4.76-9.971,4.311-9.881-5.122 c0-6.196,0.359-76.985,0.359-76.985c-0.09,0-0.09,0,0,0C64.77,360.771,70.16,265.459,71.148,215.602 c0.988-49.856,10.421-90.73,38.269-118.218c50.037-45.366,153.075-38.628,153.075-38.628 c87.047,0.359,128.73,26.589,138.432,35.393C432.993,121.638,449.344,187.396,437.396,283.786L437.396,283.786z M312.528,211.201 c0.359,7.725-11.229,8.265-11.588,0.538c-0.989-19.763-10.242-29.374-29.286-30.452c-7.726-0.45-7.007-12.038,0.628-11.588 C297.347,171.046,311.271,185.419,312.528,211.201z M330.765,221.351c0.897-38.089-22.907-67.913-68.094-71.236 c-7.636-0.539-6.827-12.128,0.81-11.589c52.103,3.774,79.86,39.617,78.872,83.095 C342.263,229.346,330.584,228.988,330.765,221.351z M372.986,233.389c0.089,7.726-11.589,7.815-11.589,0.09 c-0.539-73.213-49.317-113.099-108.518-113.548c-7.636-0.09-7.636-11.588,0-11.588 C319.086,108.792,372.357,154.516,372.986,233.389z M362.834,321.514v0.181c-9.702,17.068-27.848,35.934-46.533,29.915 l-0.18-0.271c-18.955-5.299-63.6-28.296-91.808-50.755c-14.553-11.499-27.849-25.063-38.09-38.089 c-9.252-11.589-18.594-25.334-27.667-41.862c-19.134-34.586-23.356-50.037-23.356-50.037 c-6.019-18.685,12.756-36.832,29.913-46.533h0.181c8.264-4.313,16.169-2.875,21.469,3.502c0,0,11.14,13.294,15.9,19.854 c4.492,6.108,10.511,15.899,13.655,21.379c5.48,9.791,2.065,19.763-3.324,23.894l-10.78,8.625 c-5.479,4.401-4.761,12.576-4.761,12.576s15.99,60.458,75.729,75.73c0,0,8.176,0.719,12.576-4.761l8.625-10.78 c4.131-5.39,14.104-8.803,23.895-3.323c13.206,7.455,30.004,19.044,41.144,29.555 C365.709,305.434,367.146,313.251,362.834,321.514L362.834,321.514z"></path>
    </g>
  </symbol>
  <symbol id="vk" viewBox="0 0 500 500">
    <g>
      <path d="M464 0h-416c-26.4 0-48 21.6-48 48v416c0 26.4 21.6 48 48 48h416c26.4 0 48-21.6 48-48v-416c0-26.4-21.6-48-48-48zM414.7 358.4l-46.8 0.7c0 0-10.1 2-23.3-7.1-17.5-12-34-43.3-46.9-39.2-13 4.1-12.6 32.2-12.6 32.2s0.1 6-2.9 9.2c-3.2 3.5-9.6 4.2-9.6 4.2h-20.9c0 0-46.2 2.8-86.9-39.6-44.4-46.2-83.6-137.9-83.6-137.9s-2.3-6 0.2-8.9c2.8-3.3 10.3-3.5 10.3-3.5l50.1-0.3c0 0 4.7 0.8 8.1 3.3 2.8 2 4.3 5.9 4.3 5.9s8.1 20.5 18.8 39c20.9 36.1 30.7 44 37.8 40.2 10.3-5.6 7.2-51.1 7.2-51.1s0.2-16.5-5.2-23.8c-4.2-5.7-12.1-7.4-15.5-7.8-2.8-0.4 1.8-6.9 7.8-9.9 9-4.4 24.9-4.7 43.7-4.5 14.6 0.1 18.9 1.1 24.6 2.4 17.3 4.2 11.4 20.3 11.4 58.9 0 12.4-2.2 29.8 6.7 35.5 3.8 2.5 13.2 0.4 36.7-39.5 11.1-18.9 19.5-41.1 19.5-41.1s1.8-4 4.6-5.7c2.9-1.7 6.8-1.2 6.8-1.2l52.7-0.3c0 0 15.8-1.9 18.4 5.3 2.7 7.5-5.9 25-27.4 53.7-35.3 47.1-39.3 42.7-9.9 69.9 28 26 33.8 38.7 34.8 40.3 11.4 19.2-13 20.7-13 20.7z"></path>
    </g>
  </symbol>
  <symbol id="w3c" viewBox="0 0 30 30">
    <g>
      <path d="M 0 13.019531 L 8 38.980469 L 13.089844 22.980469 L 18 38.980469 L 25.367188 16.015625 L 31.625 16.015625 L 26 24.46875 L 26 26 L 27.308594 26 C 32.457031 26 33 29.140625 33 30.691406 C 33 35.234375 29.980469 35.984375 29.0625 35.984375 C 28.191406 35.984375 27.433594 35.511719 26.792969 34.949219 C 26.148438 34.386719 25.628906 33.617188 25.234375 32.640625 L 22.550781 33.722656 C 23.097656 35.335938 23.9375 36.617188 25.074219 37.5625 C 26.207031 38.507813 27.535156 38.980469 29.0625 38.980469 C 31.09375 38.980469 32.746094 38.183594 34.023438 36.59375 C 35.300781 35 35.9375 33.035156 35.9375 30.695313 C 35.9375 28.371094 34.875 24.128906 30 23.261719 L 36 14.730469 L 36 13.019531 L 22.746094 13.019531 L 18 28.875 L 13.253906 13.019531 L 9.820313 13.019531 L 11.390625 18.296875 L 8.179688 28.875 L 3.4375 13.019531 Z M 49 13.019531 L 47.3125 16.414063 C 47.3125 16.414063 46.480469 14.914063 45.65625 14.230469 C 44.875 13.578125 43.859375 12.976563 42.574219 13.105469 C 41.332031 13.230469 39.933594 14.292969 38.988281 16.066406 C 37.921875 18.082031 37.554688 20.125 37.546875 22.378906 C 37.539063 25.535156 38.734375 27.691406 38.734375 27.691406 C 38.734375 27.691406 38.460938 26.6875 38.503906 24.992188 C 38.535156 23.933594 38.542969 22.785156 39.359375 20.40625 C 40.046875 18.417969 41.617188 16.804688 43.003906 16.527344 C 44.082031 16.308594 44.769531 16.46875 45.828125 17.191406 C 47.085938 18.054688 48 19.613281 48 19.613281 L 50 15.941406 Z M 36.332031 31.347656 C 36.332031 31.347656 36.820313 32.878906 37.125 33.53125 C 37.296875 33.90625 37.835938 35.050781 38.597656 36.046875 C 39.308594 36.976563 40.6875 38.578125 42.785156 38.9375 C 44.886719 39.300781 46.328125 38.382813 46.6875 38.160156 C 47.042969 37.9375 47.796875 37.324219 48.269531 36.828125 C 48.769531 36.308594 49.238281 35.648438 49.5 35.253906 C 49.6875 34.964844 50 34.378906 50 34.378906 L 49.5 31.832031 C 49.5 31.832031 48.628906 33.347656 48.085938 33.933594 C 47.542969 34.519531 46.570313 35.546875 45.375 36.0625 C 44.175781 36.574219 43.542969 36.671875 42.359375 36.5625 C 41.175781 36.449219 40.074219 35.78125 39.6875 35.503906 C 39.304688 35.226563 38.320313 34.40625 37.761719 33.640625 C 37.203125 32.875 36.332031 31.347656 36.332031 31.347656 Z"></path>
    </g>
  </symbol>
  <symbol id="web" viewBox="0 0 30 30">
    <g>
      <path d="M9.45221 2.23498C7.49873 0.281458 4.33654 0.281146 2.38275 2.23498C0.429205 4.1885 0.428912 7.35065 2.38275 9.30447C4.33623 11.258 7.49841 11.2583 9.45221 9.30447C11.4058 7.35094 11.406 4.1888 9.45221 2.23498ZM9.24328 8.59188C9.00972 8.38303 8.75988 8.1982 8.49654 8.03892C8.6706 7.43767 8.77372 6.77604 8.7981 6.08828H10.2678C10.2013 7.01532 9.84513 7.88494 9.24328 8.59188ZM1.56716 6.08828H3.03684C3.06122 6.77604 3.16434 7.43767 3.33839 8.03892C3.07505 8.1982 2.82522 8.38303 2.59166 8.59188C1.98981 7.88494 1.63363 7.01532 1.56716 6.08828ZM2.59168 2.94756C2.82524 3.15642 3.07507 3.34125 3.33841 3.50053C3.16435 4.10178 3.06124 4.76341 3.03686 5.45117H1.56716C1.63363 4.52415 1.98981 3.65453 2.59168 2.94756ZM5.59893 3.56638C5.07939 3.52922 4.57845 3.40126 4.11405 3.19016C4.38414 2.49465 4.88205 1.66047 5.59893 1.45374V3.56638ZM5.59893 4.20468V5.45118H3.67423C3.69628 4.86939 3.77872 4.31073 3.91581 3.79956C4.44356 4.03027 5.01115 4.16805 5.59893 4.20468ZM5.59893 6.08828V7.33478C5.01115 7.37141 4.44356 7.50919 3.91581 7.7399C3.77872 7.22874 3.69628 6.67007 3.67423 6.08828H5.59893ZM5.59893 7.97309V10.0857C4.88209 9.87898 4.38418 9.04489 4.11405 8.34931C4.57845 8.13821 5.07939 8.01025 5.59893 7.97309ZM6.23603 7.97309C6.75556 8.01025 7.2565 8.13821 7.72091 8.34931C7.4508 9.04483 6.9529 9.87898 6.23603 10.0857V7.97309ZM6.23603 7.33478V6.08828H8.16073C8.13867 6.67007 8.05624 7.22874 7.91915 7.7399C7.39139 7.50919 6.82381 7.37141 6.23603 7.33478ZM6.23603 5.45118V4.20468C6.82381 4.16805 7.39139 4.03027 7.91915 3.79956C8.05624 4.31073 8.13867 4.86939 8.16073 5.45118H6.23603ZM6.23603 3.56638V1.45376C6.9529 1.66049 7.45082 2.49467 7.72091 3.19018C7.2565 3.40126 6.75556 3.52922 6.23603 3.56638ZM7.66689 1.7718C8.07466 1.95037 8.45509 2.1925 8.79612 2.49292C8.6338 2.63604 8.46251 2.76582 8.28365 2.88188C8.12482 2.4886 7.92192 2.10641 7.66689 1.7718ZM3.55129 2.88188C3.37243 2.76582 3.20116 2.63604 3.03881 2.49292C3.37984 2.1925 3.76027 1.95037 4.16805 1.7718C3.91302 2.10645 3.71012 2.48864 3.55129 2.88188ZM3.5513 8.65759C3.71012 9.05084 3.91306 9.43305 4.16807 9.76766C3.76029 9.5891 3.37986 9.34697 3.03883 9.04655C3.20116 8.90343 3.37245 8.77365 3.5513 8.65759ZM8.28365 8.65759C8.46251 8.77365 8.6338 8.90343 8.79612 9.04653C8.45509 9.34695 8.07466 9.58908 7.66689 9.76764C7.9219 9.43307 8.12482 9.05086 8.28365 8.65759ZM8.79811 5.45118C8.77374 4.76343 8.67062 4.10178 8.49656 3.50055C8.7599 3.34127 9.00972 3.15644 9.2433 2.94758C9.84515 3.65453 10.2013 4.52415 10.2678 5.45118H8.79811Z"></path>
    </g>
  </symbol>
  <symbol id="WA" viewBox="0 0 21 20">
    <g>
      <path d="M17.0528 2.90593C15.1817 1.03093 12.6935 -0.000320435 10.0411 -0.000320435C4.58017 -0.000320435 0.134857 4.44499 0.134857 9.90984C0.134857 11.6559 0.591888 13.363 1.45908 14.863L0.0528259 19.9997L5.30673 18.6208C6.75595 19.4098 8.38486 19.8278 10.0411 19.8278H10.045C15.506 19.8278 19.9552 15.3825 19.9552 9.91765C19.9552 7.26921 18.9239 4.78093 17.0528 2.90593ZM10.045 18.1559C8.56454 18.1559 7.11533 17.7575 5.8497 17.0075L5.54892 16.8278L2.43173 17.6442L3.26376 14.6051L3.06845 14.2926C2.24033 12.9841 1.80673 11.4684 1.80673 9.90984C1.80673 5.36687 5.50205 1.67155 10.0489 1.67155C12.2481 1.67155 14.3185 2.53093 15.8731 4.08562C17.4278 5.64421 18.2833 7.71062 18.2833 9.91374C18.2794 14.4606 14.5841 18.1559 10.045 18.1559ZM14.5606 11.9841C14.3145 11.8591 13.0958 11.2614 12.8692 11.1794C12.6427 11.0973 12.4786 11.0544 12.3106 11.3044C12.1466 11.5505 11.67 12.1091 11.5255 12.277C11.381 12.4411 11.2364 12.4645 10.9903 12.3395C10.7442 12.2145 9.94345 11.9528 8.99814 11.1091C8.26376 10.4528 7.76376 9.6403 7.61923 9.39421C7.4747 9.14812 7.60361 9.0114 7.72861 8.8903C7.84189 8.78093 7.9747 8.60124 8.0997 8.45671C8.2247 8.31218 8.26376 8.21062 8.34579 8.04265C8.42783 7.87859 8.38876 7.73405 8.32626 7.60905C8.26376 7.48405 7.76767 6.2653 7.56454 5.76921C7.36533 5.28484 7.15829 5.35124 7.00595 5.34343C6.86142 5.33562 6.69736 5.33562 6.53329 5.33562C6.36923 5.33562 6.0997 5.39812 5.87314 5.64421C5.64658 5.8903 5.00595 6.49187 5.00595 7.71062C5.00595 8.92937 5.89267 10.1051 6.01767 10.2731C6.14267 10.4372 7.76376 12.9411 10.2481 14.0114C10.838 14.2653 11.2989 14.4176 11.6583 14.5348C12.252 14.7223 12.7911 14.695 13.2169 14.6325C13.6935 14.5622 14.6817 14.0348 14.8888 13.4567C15.0958 12.8786 15.0958 12.3825 15.0333 12.2809C14.9747 12.1716 14.8106 12.1091 14.5606 11.9841Z"/>
    </g> 
  </symbol>
</svg>