<svg width="21" height="20" viewBox="0 0 21 20" fill="none" xmlns="http://www.w3.org/2000/svg">
<g clip-path="url(#clip0)">
<path d="M17.0528 2.90593C15.1817 1.03093 12.6935 -0.000320435 10.0411 -0.000320435C4.58017 -0.000320435 0.134857 4.44499 0.134857 9.90984C0.134857 11.6559 0.591888 13.363 1.45908 14.863L0.0528259 19.9997L5.30673 18.6208C6.75595 19.4098 8.38486 19.8278 10.0411 19.8278H10.045C15.506 19.8278 19.9552 15.3825 19.9552 9.91765C19.9552 7.26921 18.9239 4.78093 17.0528 2.90593ZM10.045 18.1559C8.56454 18.1559 7.11533 17.7575 5.8497 17.0075L5.54892 16.8278L2.43173 17.6442L3.26376 14.6051L3.06845 14.2926C2.24033 12.9841 1.80673 11.4684 1.80673 9.90984C1.80673 5.36687 5.50205 1.67155 10.0489 1.67155C12.2481 1.67155 14.3185 2.53093 15.8731 4.08562C17.4278 5.64421 18.2833 7.71062 18.2833 9.91374C18.2794 14.4606 14.5841 18.1559 10.045 18.1559ZM14.5606 11.9841C14.3145 11.8591 13.0958 11.2614 12.8692 11.1794C12.6427 11.0973 12.4786 11.0544 12.3106 11.3044C12.1466 11.5505 11.67 12.1091 11.5255 12.277C11.381 12.4411 11.2364 12.4645 10.9903 12.3395C10.7442 12.2145 9.94345 11.9528 8.99814 11.1091C8.26376 10.4528 7.76376 9.6403 7.61923 9.39421C7.4747 9.14812 7.60361 9.0114 7.72861 8.8903C7.84189 8.78093 7.9747 8.60124 8.0997 8.45671C8.2247 8.31218 8.26376 8.21062 8.34579 8.04265C8.42783 7.87859 8.38876 7.73405 8.32626 7.60905C8.26376 7.48405 7.76767 6.2653 7.56454 5.76921C7.36533 5.28484 7.15829 5.35124 7.00595 5.34343C6.86142 5.33562 6.69736 5.33562 6.53329 5.33562C6.36923 5.33562 6.0997 5.39812 5.87314 5.64421C5.64658 5.8903 5.00595 6.49187 5.00595 7.71062C5.00595 8.92937 5.89267 10.1051 6.01767 10.2731C6.14267 10.4372 7.76376 12.9411 10.2481 14.0114C10.838 14.2653 11.2989 14.4176 11.6583 14.5348C12.252 14.7223 12.7911 14.695 13.2169 14.6325C13.6935 14.5622 14.6817 14.0348 14.8888 13.4567C15.0958 12.8786 15.0958 12.3825 15.0333 12.2809C14.9747 12.1716 14.8106 12.1091 14.5606 11.9841Z" fill="white"/>
</g>
<defs>
<clipPath id="clip0">
<rect width="20" height="20" fill="white" transform="translate(0.00204468 -0.000320435)"/>
</clipPath>
</defs>
</svg>
