<svg width="14px" height="14px" viewBox="0 0 24 25" fill="none" xmlns="http://www.w3.org/2000/svg">
<path fill-rule="evenodd" clip-rule="evenodd" d="M16.372 2.15234C17.649 2.38634 18.931 2.96134 19.552 4.14434C20.192 5.36434 20.125 6.55034 19.593 7.54934C19.09 8.49334 18.213 9.19934 17.331 9.67334C16.441 10.1513 15.438 10.4513 14.559 10.5103C14.122 10.5403 13.662 10.5123 13.243 10.3773C12.823 10.2413 12.36 9.96534 12.103 9.44534C11.9874 9.21519 11.965 8.94932 12.0406 8.7031C12.1162 8.45688 12.2838 8.24931 12.5086 8.12363C12.7334 7.99795 12.9981 7.96385 13.2474 8.02844C13.4967 8.09303 13.7115 8.25132 13.847 8.47034C13.8503 8.4717 13.8537 8.47304 13.857 8.47434C13.957 8.50634 14.144 8.53434 14.426 8.51434C14.986 8.47734 15.714 8.27134 16.384 7.91134C17.061 7.54834 17.574 7.08534 17.828 6.60834C18.053 6.18734 18.11 5.70034 17.782 5.07434C17.582 4.69234 17.044 4.30834 16.012 4.11934C15.014 3.93634 13.747 3.97934 12.447 4.24934C11.15 4.51934 9.884 5.00234 8.88 5.64634C7.866 6.29634 7.205 7.05234 6.951 7.83634C6.677 8.68334 6.774 9.28034 7.021 9.77034C7.293 10.3073 7.789 10.8053 8.474 11.3383C8.806 11.5963 9.158 11.8453 9.529 12.1083L9.549 12.1223C9.92 12.3843 10.312 12.6613 10.677 12.9503C10.986 13.1933 11.3 13.4633 11.589 13.7673C12.882 13.5173 14.002 13.5443 14.921 13.9643C16.103 14.5053 16.695 15.5713 16.974 16.7773C17.0075 16.9066 17.0147 17.0413 16.9953 17.1734C16.9759 17.3056 16.9303 17.4325 16.861 17.5467C16.7918 17.6608 16.7003 17.76 16.5921 17.8383C16.4839 17.9166 16.3612 17.9724 16.231 18.0024C16.1009 18.0325 15.9661 18.0362 15.8345 18.0133C15.703 17.9904 15.5773 17.9414 15.465 17.8691C15.3527 17.7969 15.256 17.7029 15.1806 17.5927C15.1052 17.4824 15.0526 17.3582 15.026 17.2273C14.826 16.3613 14.499 15.9713 14.089 15.7833C13.789 15.6463 13.339 15.5673 12.671 15.6283C13.287 17.7933 12.211 19.7543 10.895 20.8653C10.185 21.4643 9.318 21.9003 8.449 21.9863C7.542 22.0773 6.572 21.7723 6.002 20.8253C5.5 19.9883 5.496 19.0983 5.758 18.3053C6.01 17.5433 6.508 16.8573 7.054 16.2893C7.7483 15.5787 8.54638 14.9776 9.421 14.5063C9.08536 14.2474 8.74325 13.997 8.395 13.7553L8.359 13.7293C7.98185 13.4672 7.61076 13.1965 7.246 12.9173C6.496 12.3323 5.711 11.6133 5.236 10.6713C4.736 9.68134 4.622 8.53734 5.049 7.21934C5.496 5.83734 6.564 4.75534 7.8 3.96234C9.046 3.16434 10.55 2.60134 12.04 2.29234C13.526 1.98234 15.06 1.91234 16.372 2.15234ZM10.722 16.0923C9.89189 16.4836 9.13811 17.0197 8.496 17.6753C8.066 18.1223 7.781 18.5573 7.656 18.9343C7.542 19.2803 7.568 19.5473 7.716 19.7953C7.799 19.9323 7.926 20.0293 8.251 19.9963C8.616 19.9603 9.117 19.7493 9.606 19.3363C10.541 18.5483 11.107 17.3263 10.722 16.0923ZM13.812 8.45634H13.814H13.812Z" fill="black"/>
</svg>
